<svg xmlns="http://www.w3.org/2000/svg" width="32" height="25" viewBox="0 0 32 25" fill="none">
  <path d="M2.18182 24.5008H7.27274V12.1372L0 6.68262V22.319C0 23.5245 0.976365 24.5008 2.18182 24.5008Z" fill="#4285F4"/>
  <path d="M24.7275 24.5008H29.8185C31.0239 24.5008 32.0003 23.5245 32.0003 22.319V6.68262L24.7275 12.1372V24.5008Z" fill="#34A853"/>
  <path d="M24.7275 2.68282V12.1374L32.0003 6.68283V3.77373C32.0003 1.07736 28.9221 -0.462642 26.7639 1.15554L24.7275 2.68282Z" fill="#FBBC04"/>
  <path d="M7.27246 12.1372V2.68262L15.9998 9.22808L24.727 2.68262V12.1372L15.9998 18.6826L7.27246 12.1372Z" fill="#EA4335"/>
  <path d="M0 3.77373V6.68283L7.27274 12.1374V2.68282L5.23637 1.15554C3.07819 -0.462642 0 1.07736 0 3.77373Z" fill="#C5221F"/>
</svg>
